<svg xmlns="http://www.w3.org/2000/svg" viewBox="0 -0.5 384 384" shape-rendering="crispEdges">
<metadata>Made with Pix2d https://pix2d.com</metadata>
<path stroke="#090f0f" d="M66 102h252M66 103h252M66 104h252M66 105h252M66 106h252M66 107h252M60 108h12M312 108h12M60 109h12M312 109h12M60 110h12M312 110h12M60 111h12M312 111h12M60 112h12M312 112h12M60 113h12M312 113h12M60 114h12M312 114h12M60 115h12M312 115h12M60 116h12M312 116h12M60 117h12M312 117h12M60 118h12M312 118h12M60 119h12M312 119h12M66 120h6M312 120h6M66 121h6M312 121h6M66 122h6M312 122h6M66 123h6M312 123h6M66 124h6M312 124h6M66 125h6M312 125h6M66 126h18M300 126h18M66 127h18M300 127h18M66 128h18M300 128h18M66 129h18M300 129h18M66 130h18M300 130h18M66 131h18M300 131h18M78 132h18M102 132h180M288 132h18M78 133h18M102 133h180M288 133h18M78 134h18M102 134h180M288 134h18M78 135h18M102 135h180M288 135h18M78 136h18M102 136h180M288 136h18M78 137h18M102 137h180M288 137h18M90 138h18M276 138h18M90 139h18M276 139h18M90 140h18M276 140h18M90 141h18M276 141h18M90 142h18M276 142h18M90 143h18M276 143h18M102 144h6M276 144h6M102 145h6M276 145h6M102 146h6M276 146h6M102 147h6M276 147h6M102 148h6M276 148h6M102 149h6M276 149h6M102 150h6M276 150h6M102 151h6M276 151h6M102 152h6M276 152h6M102 153h6M276 153h6M102 154h6M276 154h6M102 155h6M276 155h6M102 156h6M276 156h6M102 157h6M276 157h6M102 158h6M276 158h6M102 159h6M276 159h6M102 160h6M276 160h6M102 161h6M276 161h6M102 162h6M276 162h6M102 163h6M276 163h6M102 164h6M276 164h6M102 165h6M276 165h6M102 166h6M276 166h6M102 167h6M276 167h6M102 168h6M276 168h6M102 169h6M276 169h6M102 170h6M276 170h6M102 171h6M276 171h6M102 172h6M276 172h6M102 173h6M276 173h6M102 174h6M276 174h6M102 175h6M276 175h6M102 176h6M276 176h6M102 177h6M276 177h6M102 178h6M276 178h6M102 179h6M276 179h6M102 180h6M276 180h6M102 181h6M276 181h6M102 182h6M276 182h6M102 183h6M276 183h6M102 184h6M276 184h6M102 185h6M276 185h6M102 186h6M276 186h6M102 187h6M276 187h6M102 188h6M276 188h6M102 189h6M276 189h6M102 190h6M276 190h6M102 191h6M276 191h6M102 192h6M276 192h6M102 193h6M276 193h6M102 194h6M276 194h6M102 195h6M276 195h6M102 196h6M276 196h6M102 197h6M276 197h6M102 198h6M276 198h6M102 199h6M276 199h6M102 200h6M276 200h6M102 201h6M276 201h6M102 202h6M276 202h6M102 203h6M276 203h6M102 204h6M276 204h6M102 205h6M276 205h6M102 206h6M276 206h6M102 207h6M276 207h6M102 208h6M276 208h6M102 209h6M276 209h6M102 210h6M276 210h6M102 211h6M276 211h6M102 212h6M276 212h6M102 213h6M276 213h6M102 214h6M276 214h6M102 215h6M276 215h6M102 216h6M276 216h6M102 217h6M276 217h6M102 218h6M276 218h6M102 219h6M276 219h6M102 220h6M276 220h6M102 221h6M276 221h6M102 222h6M276 222h6M102 223h6M276 223h6M102 224h6M276 224h6M102 225h6M276 225h6M102 226h6M276 226h6M102 227h6M276 227h6M102 228h6M276 228h6M102 229h6M276 229h6M102 230h6M276 230h6M102 231h6M276 231h6M102 232h6M276 232h6M102 233h6M276 233h6M102 234h12M270 234h12M102 235h12M270 235h12M102 236h12M270 236h12M102 237h12M270 237h12M102 238h12M270 238h12M102 239h12M270 239h12M108 240h6M270 240h6M108 241h6M270 241h6M108 242h6M270 242h6M108 243h6M270 243h6M108 244h6M270 244h6M108 245h6M270 245h6M108 246h6M270 246h6M108 247h6M270 247h6M108 248h6M270 248h6M108 249h6M270 249h6M108 250h6M270 250h6M108 251h6M270 251h6M108 252h6M270 252h6M108 253h6M270 253h6M108 254h6M270 254h6M108 255h6M270 255h6M108 256h6M270 256h6M108 257h6M270 257h6M108 258h6M270 258h6M108 259h6M270 259h6M108 260h6M270 260h6M108 261h6M270 261h6M108 262h6M270 262h6M108 263h6M270 263h6M108 264h6M270 264h6M108 265h6M270 265h6M108 266h6M270 266h6M108 267h6M270 267h6M108 268h6M270 268h6M108 269h6M270 269h6M108 270h6M270 270h6M108 271h6M270 271h6M108 272h6M270 272h6M108 273h6M270 273h6M108 274h6M270 274h6M108 275h6M270 275h6M108 276h6M270 276h6M108 277h6M270 277h6M108 278h6M270 278h6M108 279h6M270 279h6M108 280h6M270 280h6M108 281h6M270 281h6M108 282h6M270 282h6M108 283h6M270 283h6M108 284h6M270 284h6M108 285h6M270 285h6M108 286h6M270 286h6M108 287h6M270 287h6M108 288h6M270 288h6M108 289h6M270 289h6M108 290h6M270 290h6M108 291h6M270 291h6M108 292h6M270 292h6M108 293h6M270 293h6M108 294h6M270 294h6M108 295h6M270 295h6M108 296h6M270 296h6M108 297h6M270 297h6M108 298h6M270 298h6M108 299h6M270 299h6M108 300h6M270 300h6M108 301h6M270 301h6M108 302h6M270 302h6M108 303h6M270 303h6M108 304h6M270 304h6M108 305h6M270 305h6M108 306h6M270 306h6M108 307h6M270 307h6M108 308h6M270 308h6M108 309h6M270 309h6M108 310h6M270 310h6M108 311h6M270 311h6M108 312h6M270 312h6M108 313h6M270 313h6M108 314h6M270 314h6M108 315h6M270 315h6M108 316h6M270 316h6M108 317h6M270 317h6M108 318h6M270 318h6M108 319h6M270 319h6M108 320h6M270 320h6M108 321h6M270 321h6M108 322h6M270 322h6M108 323h6M270 323h6M108 324h6M270 324h6M108 325h6M270 325h6M108 326h6M270 326h6M108 327h6M270 327h6M108 328h6M270 328h6M108 329h6M270 329h6M108 330h6M270 330h6M108 331h6M270 331h6M108 332h6M270 332h6M108 333h6M270 333h6M108 334h6M270 334h6M108 335h6M270 335h6M108 336h6M270 336h6M108 337h6M270 337h6M108 338h6M270 338h6M108 339h6M270 339h6M108 340h6M270 340h6M108 341h6M270 341h6M108 342h6M270 342h6M108 343h6M270 343h6M108 344h6M270 344h6M108 345h6M270 345h6M108 346h6M270 346h6M108 347h6M270 347h6M108 348h6M270 348h6M108 349h6M270 349h6M108 350h6M270 350h6M108 351h6M270 351h6M108 352h6M270 352h6M108 353h6M270 353h6M108 354h30M246 354h30M108 355h30M246 355h30M108 356h30M246 356h30M108 357h30M246 357h30M108 358h30M246 358h30M108 359h30M246 359h30M132 360h6M246 360h6M132 361h6M246 361h6M132 362h6M246 362h6M132 363h6M246 363h6M132 364h6M246 364h6M132 365h6M246 365h6M132 366h120M132 367h120M132 368h120M132 369h120M132 370h120M132 371h120" />
<path stroke="#a7a5a5" d="M72 108h60M300 108h12M72 109h60M300 109h12M72 110h60M300 110h12M72 111h60M300 111h12M72 112h60M300 112h12M72 113h60M300 113h12M72 114h222M72 115h222M72 116h222M72 117h222M72 118h222M72 119h222M108 120h114M108 121h114M108 122h114M108 123h114M108 124h114M108 125h114M168 126h126M168 127h126M168 128h126M168 129h126M168 130h126M168 131h126M96 132h6M282 132h6M96 133h6M282 133h6M96 134h6M282 134h6M96 135h6M282 135h6M96 136h6M282 136h6M96 137h6M282 137h6" />
<path stroke="#ffffff" d="M132 108h168M132 109h168M132 110h168M132 111h168M132 112h168M132 113h168M294 114h18M294 115h18M294 116h18M294 117h18M294 118h18M294 119h18M222 120h90M222 121h90M222 122h90M222 123h90M222 124h90M222 125h90M294 126h6M294 127h6M294 128h6M294 129h6M294 130h6M294 131h6M216 138h6M270 138h6M216 139h6M270 139h6M216 140h6M270 140h6M216 141h6M270 141h6M216 142h6M270 142h6M216 143h6M270 143h6M216 144h6M270 144h6M216 145h6M270 145h6M216 146h6M270 146h6M216 147h6M270 147h6M216 148h6M270 148h6M216 149h6M270 149h6M216 150h6M240 150h6M258 150h6M270 150h6M216 151h6M240 151h6M258 151h6M270 151h6M216 152h6M240 152h6M258 152h6M270 152h6M216 153h6M240 153h6M258 153h6M270 153h6M216 154h6M240 154h6M258 154h6M270 154h6M216 155h6M240 155h6M258 155h6M270 155h6M216 156h6M240 156h6M258 156h6M270 156h6M216 157h6M240 157h6M258 157h6M270 157h6M216 158h6M240 158h6M258 158h6M270 158h6M216 159h6M240 159h6M258 159h6M270 159h6M216 160h6M240 160h6M258 160h6M270 160h6M216 161h6M240 161h6M258 161h6M270 161h6M216 162h6M240 162h6M258 162h6M270 162h6M216 163h6M240 163h6M258 163h6M270 163h6M216 164h6M240 164h6M258 164h6M270 164h6M216 165h6M240 165h6M258 165h6M270 165h6M216 166h6M240 166h6M258 166h6M270 166h6M216 167h6M240 167h6M258 167h6M270 167h6M216 168h6M240 168h6M270 168h6M216 169h6M240 169h6M270 169h6M216 170h6M240 170h6M270 170h6M216 171h6M240 171h6M270 171h6M216 172h6M240 172h6M270 172h6M216 173h6M240 173h6M270 173h6M216 174h6M240 174h6M270 174h6M216 175h6M240 175h6M270 175h6M216 176h6M240 176h6M270 176h6M216 177h6M240 177h6M270 177h6M216 178h6M240 178h6M270 178h6M216 179h6M240 179h6M270 179h6M216 180h6M240 180h6M270 180h6M216 181h6M240 181h6M270 181h6M216 182h6M240 182h6M270 182h6M216 183h6M240 183h6M270 183h6M216 184h6M240 184h6M270 184h6M216 185h6M240 185h6M270 185h6M216 186h6M240 186h12M270 186h6M216 187h6M240 187h12M270 187h6M216 188h6M240 188h12M270 188h6M216 189h6M240 189h12M270 189h6M216 190h6M240 190h12M270 190h6M216 191h6M240 191h12M270 191h6M216 192h6M240 192h12M270 192h6M216 193h6M240 193h12M270 193h6M216 194h6M240 194h12M270 194h6M216 195h6M240 195h12M270 195h6M216 196h6M240 196h12M270 196h6M216 197h6M240 197h12M270 197h6M216 198h6M240 198h12M270 198h6M216 199h6M240 199h12M270 199h6M216 200h6M240 200h12M270 200h6M216 201h6M240 201h12M270 201h6M216 202h6M240 202h12M270 202h6M216 203h6M240 203h12M270 203h6M216 204h12M240 204h12M270 204h6M216 205h12M240 205h12M270 205h6M216 206h12M240 206h12M270 206h6M216 207h12M240 207h12M270 207h6M216 208h12M240 208h12M270 208h6M216 209h12M240 209h12M270 209h6M216 210h12M240 210h12M270 210h6M216 211h12M240 211h12M270 211h6M216 212h12M240 212h12M270 212h6M216 213h12M240 213h12M270 213h6M216 214h12M240 214h12M270 214h6M216 215h12M240 215h12M270 215h6M216 216h12M246 216h6M270 216h6M216 217h12M246 217h6M270 217h6M216 218h12M246 218h6M270 218h6M216 219h12M246 219h6M270 219h6M216 220h12M246 220h6M270 220h6M216 221h12M246 221h6M270 221h6M216 222h12M246 222h6M264 222h12M216 223h12M246 223h6M264 223h12M216 224h12M246 224h6M264 224h12M216 225h12M246 225h6M264 225h12M216 226h12M246 226h6M264 226h12M216 227h12M246 227h6M264 227h12M216 228h12M246 228h6M216 229h12M246 229h6M216 230h12M246 230h6M216 231h12M246 231h6M216 232h12M246 232h6M216 233h12M246 233h6M114 234h6M216 234h12M246 234h6M114 235h6M216 235h12M246 235h6M114 236h6M216 236h12M246 236h6M114 237h6M216 237h12M246 237h6M114 238h6M216 238h12M246 238h6M114 239h6M216 239h12M246 239h6M114 240h6M216 240h12M246 240h12M114 241h6M216 241h12M246 241h12M114 242h6M216 242h12M246 242h12M114 243h6M216 243h12M246 243h12M114 244h6M216 244h12M246 244h12M114 245h6M216 245h12M246 245h12M114 246h6M216 246h12M246 246h12M114 247h6M216 247h12M246 247h12M114 248h6M216 248h12M246 248h12M114 249h6M216 249h12M246 249h12M114 250h6M216 250h12M246 250h12M114 251h6M216 251h12M246 251h12M114 252h6M216 252h12M246 252h12M114 253h6M216 253h12M246 253h12M114 254h6M216 254h12M246 254h12M114 255h6M216 255h12M246 255h12M114 256h6M216 256h12M246 256h12M114 257h6M216 257h12M246 257h12M114 258h6M216 258h12M246 258h12M114 259h6M216 259h12M246 259h12M114 260h6M216 260h12M246 260h12M114 261h6M216 261h12M246 261h12M114 262h6M216 262h12M246 262h12M114 263h6M216 263h12M246 263h12M114 264h6M216 264h12M246 264h12M114 265h6M216 265h12M246 265h12M114 266h6M216 266h12M246 266h12M114 267h6M216 267h12M246 267h12M114 268h6M216 268h12M246 268h12M114 269h6M216 269h12M246 269h12M114 270h6M216 270h12M246 270h12M114 271h6M216 271h12M246 271h12M114 272h6M216 272h12M246 272h12M114 273h6M216 273h12M246 273h12M114 274h6M216 274h12M246 274h12M114 275h6M216 275h12M246 275h12M114 276h6M216 276h12M246 276h12M114 277h6M216 277h12M246 277h12M114 278h6M216 278h12M246 278h12M114 279h6M216 279h12M246 279h12M114 280h6M216 280h12M246 280h12M114 281h6M216 281h12M246 281h12M114 282h6M216 282h12M246 282h12M114 283h6M216 283h12M246 283h12M114 284h6M216 284h12M246 284h12M114 285h6M216 285h12M246 285h12M114 286h6M216 286h12M246 286h12M114 287h6M216 287h12M246 287h12M114 288h6M216 288h12M246 288h12M114 289h6M216 289h12M246 289h12M114 290h6M216 290h12M246 290h12M114 291h6M216 291h12M246 291h12M114 292h6M216 292h12M246 292h12M114 293h6M216 293h12M246 293h12M114 294h6M222 294h6M246 294h6M114 295h6M222 295h6M246 295h6M114 296h6M222 296h6M246 296h6M114 297h6M222 297h6M246 297h6M114 298h6M222 298h6M246 298h6M114 299h6M222 299h6M246 299h6M114 300h12M222 300h6M246 300h12M264 300h6M114 301h12M222 301h6M246 301h12M264 301h6M114 302h12M222 302h6M246 302h12M264 302h6M114 303h12M222 303h6M246 303h12M264 303h6M114 304h12M222 304h6M246 304h12M264 304h6M114 305h12M222 305h6M246 305h12M264 305h6M114 306h12M222 306h6M246 306h12M264 306h6M114 307h12M222 307h6M246 307h12M264 307h6M114 308h12M222 308h6M246 308h12M264 308h6M114 309h12M222 309h6M246 309h12M264 309h6M114 310h12M222 310h6M246 310h12M264 310h6M114 311h12M222 311h6M246 311h12M264 311h6M114 312h12M222 312h6M246 312h12M264 312h6M114 313h12M222 313h6M246 313h12M264 313h6M114 314h12M222 314h6M246 314h12M264 314h6M114 315h12M222 315h6M246 315h12M264 315h6M114 316h12M222 316h6M246 316h12M264 316h6M114 317h12M222 317h6M246 317h12M264 317h6M222 318h6M246 318h12M264 318h6M222 319h6M246 319h12M264 319h6M222 320h6M246 320h12M264 320h6M222 321h6M246 321h12M264 321h6M222 322h6M246 322h12M264 322h6M222 323h6M246 323h12M264 323h6M222 324h6M264 324h6M222 325h6M264 325h6M222 326h6M264 326h6M222 327h6M264 327h6M222 328h6M264 328h6M222 329h6M264 329h6M216 330h12M264 330h6M216 331h12M264 331h6M216 332h12M264 332h6M216 333h12M264 333h6M216 334h12M264 334h6M216 335h12M264 335h6M216 336h12M264 336h6M216 337h12M264 337h6M216 338h12M264 338h6M216 339h12M264 339h6M216 340h12M264 340h6M216 341h12M264 341h6M264 342h6M264 343h6M264 344h6M264 345h6M264 346h6M264 347h6M114 348h78M252 348h18M114 349h78M252 349h18M114 350h78M252 350h18M114 351h78M252 351h18M114 352h78M252 352h18M114 353h78M252 353h18M138 354h36M240 354h6M138 355h36M240 355h6M138 356h36M240 356h6M138 357h36M240 357h6M138 358h36M240 358h6M138 359h36M240 359h6M138 360h6M204 360h42M138 361h6M204 361h42M138 362h6M204 362h42M138 363h6M204 363h42M138 364h6M204 364h42M138 365h6M204 365h42" />
<path stroke="#797777" d="M72 120h36M72 121h36M72 122h36M72 123h36M72 124h36M72 125h36M84 126h84M84 127h84M84 128h84M84 129h84M84 130h84M84 131h84" />
</svg>