<svg xmlns="http://www.w3.org/2000/svg" viewBox="0 -0.5 512 512" shape-rendering="crispEdges">
<metadata>Made with Pix2d https://pix2d.com</metadata>
<path stroke="#090f0f" d="M104 24h72M224 24h56M336 24h72M104 25h72M224 25h56M336 25h72M104 26h72M224 26h56M336 26h72M104 27h72M224 27h56M336 27h72M104 28h72M224 28h56M336 28h72M104 29h72M224 29h56M336 29h72M104 30h72M224 30h56M336 30h72M104 31h72M224 31h56M336 31h72M104 32h8M168 32h64M272 32h72M400 32h8M104 33h8M168 33h64M272 33h72M400 33h8M104 34h8M168 34h64M272 34h72M400 34h8M104 35h8M168 35h64M272 35h72M400 35h8M104 36h8M168 36h64M272 36h72M400 36h8M104 37h8M168 37h64M272 37h72M400 37h8M104 38h8M168 38h64M272 38h72M400 38h8M104 39h8M168 39h64M272 39h72M400 39h8M104 40h8M128 40h24M176 40h16M320 40h16M360 40h24M400 40h8M104 41h8M128 41h24M176 41h16M320 41h16M360 41h24M400 41h8M104 42h8M128 42h24M176 42h16M320 42h16M360 42h24M400 42h8M104 43h8M128 43h24M176 43h16M320 43h16M360 43h24M400 43h8M104 44h8M128 44h24M176 44h16M320 44h16M360 44h24M400 44h8M104 45h8M128 45h24M176 45h16M320 45h16M360 45h24M400 45h8M104 46h8M128 46h24M176 46h16M320 46h16M360 46h24M400 46h8M104 47h8M128 47h24M176 47h16M320 47h16M360 47h24M400 47h8M104 48h8M128 48h24M176 48h16M320 48h16M360 48h24M400 48h8M104 49h8M128 49h24M176 49h16M320 49h16M360 49h24M400 49h8M104 50h8M128 50h24M176 50h16M320 50h16M360 50h24M400 50h8M104 51h8M128 51h24M176 51h16M320 51h16M360 51h24M400 51h8M104 52h8M128 52h24M176 52h16M320 52h16M360 52h24M400 52h8M104 53h8M128 53h24M176 53h16M320 53h16M360 53h24M400 53h8M104 54h8M128 54h24M176 54h16M320 54h16M360 54h24M400 54h8M104 55h8M128 55h24M176 55h16M320 55h16M360 55h24M400 55h8M104 56h16M136 56h16M176 56h8M328 56h8M360 56h16M392 56h16M104 57h16M136 57h16M176 57h8M328 57h8M360 57h16M392 57h16M104 58h16M136 58h16M176 58h8M328 58h8M360 58h16M392 58h16M104 59h16M136 59h16M176 59h8M328 59h8M360 59h16M392 59h16M104 60h16M136 60h16M176 60h8M328 60h8M360 60h16M392 60h16M104 61h16M136 61h16M176 61h8M328 61h8M360 61h16M392 61h16M104 62h16M136 62h16M176 62h8M328 62h8M360 62h16M392 62h16M104 63h16M136 63h16M176 63h8M328 63h8M360 63h16M392 63h16M112 64h8M136 64h24M176 64h8M200 64h40M272 64h40M328 64h8M352 64h24M392 64h8M112 65h8M136 65h24M176 65h8M200 65h40M272 65h40M328 65h8M352 65h24M392 65h8M112 66h8M136 66h24M176 66h8M200 66h40M272 66h40M328 66h8M352 66h24M392 66h8M112 67h8M136 67h24M176 67h8M200 67h40M272 67h40M328 67h8M352 67h24M392 67h8M112 68h8M136 68h24M176 68h8M200 68h40M272 68h40M328 68h8M352 68h24M392 68h8M112 69h8M136 69h24M176 69h8M200 69h40M272 69h40M328 69h8M352 69h24M392 69h8M112 70h8M136 70h24M176 70h8M200 70h40M272 70h40M328 70h8M352 70h24M392 70h8M112 71h8M136 71h24M176 71h8M200 71h40M272 71h40M328 71h8M352 71h24M392 71h8M112 72h8M136 72h48M192 72h16M232 72h8M272 72h8M304 72h16M328 72h48M392 72h8M112 73h8M136 73h48M192 73h16M232 73h8M272 73h8M304 73h16M328 73h48M392 73h8M112 74h8M136 74h48M192 74h16M232 74h8M272 74h8M304 74h16M328 74h48M392 74h8M112 75h8M136 75h48M192 75h16M232 75h8M272 75h8M304 75h16M328 75h48M392 75h8M112 76h8M136 76h48M192 76h16M232 76h8M272 76h8M304 76h16M328 76h48M392 76h8M112 77h8M136 77h48M192 77h16M232 77h8M272 77h8M304 77h16M328 77h48M392 77h8M112 78h8M136 78h48M192 78h16M232 78h8M272 78h8M304 78h16M328 78h48M392 78h8M112 79h8M136 79h48M192 79h16M232 79h8M272 79h8M304 79h16M328 79h48M392 79h8M112 80h40M184 80h16M208 80h32M272 80h32M312 80h16M360 80h40M112 81h40M184 81h16M208 81h32M272 81h32M312 81h16M360 81h40M112 82h40M184 82h16M208 82h32M272 82h32M312 82h16M360 82h40M112 83h40M184 83h16M208 83h32M272 83h32M312 83h16M360 83h40M112 84h40M184 84h16M208 84h32M272 84h32M312 84h16M360 84h40M112 85h40M184 85h16M208 85h32M272 85h32M312 85h16M360 85h40M112 86h40M184 86h16M208 86h32M272 86h32M312 86h16M360 86h40M112 87h40M184 87h16M208 87h32M272 87h32M312 87h16M360 87h40M112 88h16M184 88h16M208 88h32M272 88h32M312 88h16M384 88h16M112 89h16M184 89h16M208 89h32M272 89h32M312 89h16M384 89h16M112 90h16M184 90h16M208 90h32M272 90h32M312 90h16M384 90h16M112 91h16M184 91h16M208 91h32M272 91h32M312 91h16M384 91h16M112 92h16M184 92h16M208 92h32M272 92h32M312 92h16M384 92h16M112 93h16M184 93h16M208 93h32M272 93h32M312 93h16M384 93h16M112 94h16M184 94h16M208 94h32M272 94h32M312 94h16M384 94h16M112 95h16M184 95h16M208 95h32M272 95h32M312 95h16M384 95h16M112 96h8M184 96h16M208 96h16M232 96h8M272 96h8M288 96h16M312 96h16M392 96h8M112 97h8M184 97h16M208 97h16M232 97h8M272 97h8M288 97h16M312 97h16M392 97h8M112 98h8M184 98h16M208 98h16M232 98h8M272 98h8M288 98h16M312 98h16M392 98h8M112 99h8M184 99h16M208 99h16M232 99h8M272 99h8M288 99h16M312 99h16M392 99h8M112 100h8M184 100h16M208 100h16M232 100h8M272 100h8M288 100h16M312 100h16M392 100h8M112 101h8M184 101h16M208 101h16M232 101h8M272 101h8M288 101h16M312 101h16M392 101h8M112 102h8M184 102h16M208 102h16M232 102h8M272 102h8M288 102h16M312 102h16M392 102h8M112 103h8M184 103h16M208 103h16M232 103h8M272 103h8M288 103h16M312 103h16M392 103h8M112 104h8M184 104h56M272 104h56M392 104h8M112 105h8M184 105h56M272 105h56M392 105h8M112 106h8M184 106h56M272 106h56M392 106h8M112 107h8M184 107h56M272 107h56M392 107h8M112 108h8M184 108h56M272 108h56M392 108h8M112 109h8M184 109h56M272 109h56M392 109h8M112 110h8M184 110h56M272 110h56M392 110h8M112 111h8M184 111h56M272 111h56M392 111h8M112 112h8M392 112h8M112 113h8M392 113h8M112 114h8M392 114h8M112 115h8M392 115h8M112 116h8M392 116h8M112 117h8M392 117h8M112 118h8M392 118h8M112 119h8M392 119h8M112 120h8M392 120h8M112 121h8M392 121h8M112 122h8M392 122h8M112 123h8M392 123h8M112 124h8M392 124h8M112 125h8M392 125h8M112 126h8M392 126h8M112 127h8M392 127h8M112 128h8M392 128h8M112 129h8M392 129h8M112 130h8M392 130h8M112 131h8M392 131h8M112 132h8M392 132h8M112 133h8M392 133h8M112 134h8M392 134h8M112 135h8M392 135h8M88 136h336M88 137h336M88 138h336M88 139h336M88 140h336M88 141h336M88 142h336M88 143h336M80 144h16M416 144h16M80 145h16M416 145h16M80 146h16M416 146h16M80 147h16M416 147h16M80 148h16M416 148h16M80 149h16M416 149h16M80 150h16M416 150h16M80 151h16M416 151h16M80 152h16M416 152h16M80 153h16M416 153h16M80 154h16M416 154h16M80 155h16M416 155h16M80 156h16M416 156h16M80 157h16M416 157h16M80 158h16M416 158h16M80 159h16M416 159h16M88 160h8M416 160h8M88 161h8M416 161h8M88 162h8M416 162h8M88 163h8M416 163h8M88 164h8M416 164h8M88 165h8M416 165h8M88 166h8M416 166h8M88 167h8M416 167h8M88 168h24M400 168h24M88 169h24M400 169h24M88 170h24M400 170h24M88 171h24M400 171h24M88 172h24M400 172h24M88 173h24M400 173h24M88 174h24M400 174h24M88 175h24M400 175h24M104 176h24M136 176h240M384 176h24M104 177h24M136 177h240M384 177h24M104 178h24M136 178h240M384 178h24M104 179h24M136 179h240M384 179h24M104 180h24M136 180h240M384 180h24M104 181h24M136 181h240M384 181h24M104 182h24M136 182h240M384 182h24M104 183h24M136 183h240M384 183h24M120 184h24M368 184h24M120 185h24M368 185h24M120 186h24M368 186h24M120 187h24M368 187h24M120 188h24M368 188h24M120 189h24M368 189h24M120 190h24M368 190h24M120 191h24M368 191h24M136 192h8M368 192h8M136 193h8M368 193h8M136 194h8M368 194h8M136 195h8M368 195h8M136 196h8M368 196h8M136 197h8M368 197h8M136 198h8M368 198h8M136 199h8M368 199h8M136 200h8M368 200h8M136 201h8M368 201h8M136 202h8M368 202h8M136 203h8M368 203h8M136 204h8M368 204h8M136 205h8M368 205h8M136 206h8M368 206h8M136 207h8M368 207h8M136 208h8M368 208h8M136 209h8M368 209h8M136 210h8M368 210h8M136 211h8M368 211h8M136 212h8M368 212h8M136 213h8M368 213h8M136 214h8M368 214h8M136 215h8M368 215h8M136 216h8M368 216h8M136 217h8M368 217h8M136 218h8M368 218h8M136 219h8M368 219h8M136 220h8M368 220h8M136 221h8M368 221h8M136 222h8M368 222h8M136 223h8M368 223h8M136 224h8M368 224h8M136 225h8M368 225h8M136 226h8M368 226h8M136 227h8M368 227h8M136 228h8M368 228h8M136 229h8M368 229h8M136 230h8M368 230h8M136 231h8M368 231h8M136 232h8M368 232h8M136 233h8M368 233h8M136 234h8M368 234h8M136 235h8M368 235h8M136 236h8M368 236h8M136 237h8M368 237h8M136 238h8M368 238h8M136 239h8M368 239h8M136 240h8M368 240h8M136 241h8M368 241h8M136 242h8M368 242h8M136 243h8M368 243h8M136 244h8M368 244h8M136 245h8M368 245h8M136 246h8M368 246h8M136 247h8M368 247h8M136 248h8M368 248h8M136 249h8M368 249h8M136 250h8M368 250h8M136 251h8M368 251h8M136 252h8M368 252h8M136 253h8M368 253h8M136 254h8M368 254h8M136 255h8M368 255h8M136 256h8M368 256h8M136 257h8M368 257h8M136 258h8M368 258h8M136 259h8M368 259h8M136 260h8M368 260h8M136 261h8M368 261h8M136 262h8M368 262h8M136 263h8M368 263h8M136 264h8M368 264h8M136 265h8M368 265h8M136 266h8M368 266h8M136 267h8M368 267h8M136 268h8M368 268h8M136 269h8M368 269h8M136 270h8M368 270h8M136 271h8M368 271h8M136 272h8M368 272h8M136 273h8M368 273h8M136 274h8M368 274h8M136 275h8M368 275h8M136 276h8M368 276h8M136 277h8M368 277h8M136 278h8M368 278h8M136 279h8M368 279h8M136 280h8M368 280h8M136 281h8M368 281h8M136 282h8M368 282h8M136 283h8M368 283h8M136 284h8M368 284h8M136 285h8M368 285h8M136 286h8M368 286h8M136 287h8M368 287h8M136 288h8M368 288h8M136 289h8M368 289h8M136 290h8M368 290h8M136 291h8M368 291h8M136 292h8M368 292h8M136 293h8M368 293h8M136 294h8M368 294h8M136 295h8M368 295h8M136 296h8M368 296h8M136 297h8M368 297h8M136 298h8M368 298h8M136 299h8M368 299h8M136 300h8M368 300h8M136 301h8M368 301h8M136 302h8M368 302h8M136 303h8M368 303h8M136 304h8M368 304h8M136 305h8M368 305h8M136 306h8M368 306h8M136 307h8M368 307h8M136 308h8M368 308h8M136 309h8M368 309h8M136 310h8M368 310h8M136 311h8M368 311h8M136 312h16M360 312h16M136 313h16M360 313h16M136 314h16M360 314h16M136 315h16M360 315h16M136 316h16M360 316h16M136 317h16M360 317h16M136 318h16M360 318h16M136 319h16M360 319h16M144 320h8M360 320h8M144 321h8M360 321h8M144 322h8M360 322h8M144 323h8M360 323h8M144 324h8M360 324h8M144 325h8M360 325h8M144 326h8M360 326h8M144 327h8M360 327h8M144 328h8M360 328h8M144 329h8M360 329h8M144 330h8M360 330h8M144 331h8M360 331h8M144 332h8M360 332h8M144 333h8M360 333h8M144 334h8M360 334h8M144 335h8M360 335h8M144 336h8M360 336h8M144 337h8M360 337h8M144 338h8M360 338h8M144 339h8M360 339h8M144 340h8M360 340h8M144 341h8M360 341h8M144 342h8M360 342h8M144 343h8M360 343h8M144 344h8M360 344h8M144 345h8M360 345h8M144 346h8M360 346h8M144 347h8M360 347h8M144 348h8M360 348h8M144 349h8M360 349h8M144 350h8M360 350h8M144 351h8M360 351h8M144 352h8M360 352h8M144 353h8M360 353h8M144 354h8M360 354h8M144 355h8M360 355h8M144 356h8M360 356h8M144 357h8M360 357h8M144 358h8M360 358h8M144 359h8M360 359h8M144 360h8M360 360h8M144 361h8M360 361h8M144 362h8M360 362h8M144 363h8M360 363h8M144 364h8M360 364h8M144 365h8M360 365h8M144 366h8M360 366h8M144 367h8M360 367h8M144 368h8M360 368h8M144 369h8M360 369h8M144 370h8M360 370h8M144 371h8M360 371h8M144 372h8M360 372h8M144 373h8M360 373h8M144 374h8M360 374h8M144 375h8M360 375h8M144 376h8M360 376h8M144 377h8M360 377h8M144 378h8M360 378h8M144 379h8M360 379h8M144 380h8M360 380h8M144 381h8M360 381h8M144 382h8M360 382h8M144 383h8M360 383h8M144 384h8M360 384h8M144 385h8M360 385h8M144 386h8M360 386h8M144 387h8M360 387h8M144 388h8M360 388h8M144 389h8M360 389h8M144 390h8M360 390h8M144 391h8M360 391h8M144 392h8M360 392h8M144 393h8M360 393h8M144 394h8M360 394h8M144 395h8M360 395h8M144 396h8M360 396h8M144 397h8M360 397h8M144 398h8M360 398h8M144 399h8M360 399h8M144 400h8M360 400h8M144 401h8M360 401h8M144 402h8M360 402h8M144 403h8M360 403h8M144 404h8M360 404h8M144 405h8M360 405h8M144 406h8M360 406h8M144 407h8M360 407h8M144 408h8M360 408h8M144 409h8M360 409h8M144 410h8M360 410h8M144 411h8M360 411h8M144 412h8M360 412h8M144 413h8M360 413h8M144 414h8M360 414h8M144 415h8M360 415h8M144 416h8M360 416h8M144 417h8M360 417h8M144 418h8M360 418h8M144 419h8M360 419h8M144 420h8M360 420h8M144 421h8M360 421h8M144 422h8M360 422h8M144 423h8M360 423h8M144 424h8M360 424h8M144 425h8M360 425h8M144 426h8M360 426h8M144 427h8M360 427h8M144 428h8M360 428h8M144 429h8M360 429h8M144 430h8M360 430h8M144 431h8M360 431h8M144 432h8M360 432h8M144 433h8M360 433h8M144 434h8M360 434h8M144 435h8M360 435h8M144 436h8M360 436h8M144 437h8M360 437h8M144 438h8M360 438h8M144 439h8M360 439h8M144 440h8M360 440h8M144 441h8M360 441h8M144 442h8M360 442h8M144 443h8M360 443h8M144 444h8M360 444h8M144 445h8M360 445h8M144 446h8M360 446h8M144 447h8M360 447h8M144 448h8M360 448h8M144 449h8M360 449h8M144 450h8M360 450h8M144 451h8M360 451h8M144 452h8M360 452h8M144 453h8M360 453h8M144 454h8M360 454h8M144 455h8M360 455h8M144 456h8M360 456h8M144 457h8M360 457h8M144 458h8M360 458h8M144 459h8M360 459h8M144 460h8M360 460h8M144 461h8M360 461h8M144 462h8M360 462h8M144 463h8M360 463h8M144 464h8M360 464h8M144 465h8M360 465h8M144 466h8M360 466h8M144 467h8M360 467h8M144 468h8M360 468h8M144 469h8M360 469h8M144 470h8M360 470h8M144 471h8M360 471h8M144 472h40M328 472h40M144 473h40M328 473h40M144 474h40M328 474h40M144 475h40M328 475h40M144 476h40M328 476h40M144 477h40M328 477h40M144 478h40M328 478h40M144 479h40M328 479h40M176 480h8M328 480h8M176 481h8M328 481h8M176 482h8M328 482h8M176 483h8M328 483h8M176 484h8M328 484h8M176 485h8M328 485h8M176 486h8M328 486h8M176 487h8M328 487h8M176 488h160M176 489h160M176 490h160M176 491h160M176 492h160M176 493h160M176 494h160M176 495h160" />
<path stroke="#ffffff" d="M112 32h56M232 32h40M344 32h56M112 33h56M232 33h40M344 33h56M112 34h56M232 34h40M344 34h56M112 35h56M232 35h40M344 35h56M112 36h56M232 36h40M344 36h56M112 37h56M232 37h40M344 37h56M112 38h56M232 38h40M344 38h56M112 39h56M232 39h40M344 39h56M112 40h16M152 40h24M192 40h128M336 40h24M384 40h16M112 41h16M152 41h24M192 41h128M336 41h24M384 41h16M112 42h16M152 42h24M192 42h128M336 42h24M384 42h16M112 43h16M152 43h24M192 43h128M336 43h24M384 43h16M112 44h16M152 44h24M192 44h128M336 44h24M384 44h16M112 45h16M152 45h24M192 45h128M336 45h24M384 45h16M112 46h16M152 46h24M192 46h128M336 46h24M384 46h16M112 47h16M152 47h24M192 47h128M336 47h24M384 47h16M112 48h16M152 48h24M192 48h128M336 48h24M384 48h16M112 49h16M152 49h24M192 49h128M336 49h24M384 49h16M112 50h16M152 50h24M192 50h128M336 50h24M384 50h16M112 51h16M152 51h24M192 51h128M336 51h24M384 51h16M112 52h16M152 52h24M192 52h128M336 52h24M384 52h16M112 53h16M152 53h24M192 53h128M336 53h24M384 53h16M112 54h16M152 54h24M192 54h128M336 54h24M384 54h16M112 55h16M152 55h24M192 55h128M336 55h24M384 55h16M120 56h16M152 56h24M184 56h144M336 56h24M376 56h16M120 57h16M152 57h24M184 57h144M336 57h24M376 57h16M120 58h16M152 58h24M184 58h144M336 58h24M376 58h16M120 59h16M152 59h24M184 59h144M336 59h24M376 59h16M120 60h16M152 60h24M184 60h144M336 60h24M376 60h16M120 61h16M152 61h24M184 61h144M336 61h24M376 61h16M120 62h16M152 62h24M184 62h144M336 62h24M376 62h16M120 63h16M152 63h24M184 63h144M336 63h24M376 63h16M120 64h16M160 64h16M184 64h16M240 64h32M312 64h16M336 64h16M376 64h16M120 65h16M160 65h16M184 65h16M240 65h32M312 65h16M336 65h16M376 65h16M120 66h16M160 66h16M184 66h16M240 66h32M312 66h16M336 66h16M376 66h16M120 67h16M160 67h16M184 67h16M240 67h32M312 67h16M336 67h16M376 67h16M120 68h16M160 68h16M184 68h16M240 68h32M312 68h16M336 68h16M376 68h16M120 69h16M160 69h16M184 69h16M240 69h32M312 69h16M336 69h16M376 69h16M120 70h16M160 70h16M184 70h16M240 70h32M312 70h16M336 70h16M376 70h16M120 71h16M160 71h16M184 71h16M240 71h32M312 71h16M336 71h16M376 71h16M120 72h16M184 72h8M208 72h24M240 72h32M280 72h24M320 72h8M376 72h16M120 73h16M184 73h8M208 73h24M240 73h32M280 73h24M320 73h8M376 73h16M120 74h16M184 74h8M208 74h24M240 74h32M280 74h24M320 74h8M376 74h16M120 75h16M184 75h8M208 75h24M240 75h32M280 75h24M320 75h8M376 75h16M120 76h16M184 76h8M208 76h24M240 76h32M280 76h24M320 76h8M376 76h16M120 77h16M184 77h8M208 77h24M240 77h32M280 77h24M320 77h8M376 77h16M120 78h16M184 78h8M208 78h24M240 78h32M280 78h24M320 78h8M376 78h16M120 79h16M184 79h8M208 79h24M240 79h32M280 79h24M320 79h8M376 79h16M152 80h32M200 80h8M240 80h32M304 80h8M328 80h32M152 81h32M200 81h8M240 81h32M304 81h8M328 81h32M152 82h32M200 82h8M240 82h32M304 82h8M328 82h32M152 83h32M200 83h8M240 83h32M304 83h8M328 83h32M152 84h32M200 84h8M240 84h32M304 84h8M328 84h32M152 85h32M200 85h8M240 85h32M304 85h8M328 85h32M152 86h32M200 86h8M240 86h32M304 86h8M328 86h32M152 87h32M200 87h8M240 87h32M304 87h8M328 87h32M128 88h56M200 88h8M240 88h32M304 88h8M328 88h56M128 89h56M200 89h8M240 89h32M304 89h8M328 89h56M128 90h56M200 90h8M240 90h32M304 90h8M328 90h56M128 91h56M200 91h8M240 91h32M304 91h8M328 91h56M128 92h56M200 92h8M240 92h32M304 92h8M328 92h56M128 93h56M200 93h8M240 93h32M304 93h8M328 93h56M128 94h56M200 94h8M240 94h32M304 94h8M328 94h56M128 95h56M200 95h8M240 95h32M304 95h8M328 95h56M120 96h64M200 96h8M224 96h8M240 96h32M280 96h8M304 96h8M328 96h64M120 97h64M200 97h8M224 97h8M240 97h32M280 97h8M304 97h8M328 97h64M120 98h64M200 98h8M224 98h8M240 98h32M280 98h8M304 98h8M328 98h64M120 99h64M200 99h8M224 99h8M240 99h32M280 99h8M304 99h8M328 99h64M120 100h64M200 100h8M224 100h8M240 100h32M280 100h8M304 100h8M328 100h64M120 101h64M200 101h8M224 101h8M240 101h32M280 101h8M304 101h8M328 101h64M120 102h64M200 102h8M224 102h8M240 102h32M280 102h8M304 102h8M328 102h64M120 103h64M200 103h8M224 103h8M240 103h32M280 103h8M304 103h8M328 103h64M120 104h64M240 104h32M328 104h64M120 105h64M240 105h32M328 105h64M120 106h64M240 106h32M328 106h64M120 107h64M240 107h32M328 107h64M120 108h64M240 108h32M328 108h64M120 109h64M240 109h32M328 109h64M120 110h64M240 110h32M328 110h64M120 111h64M240 111h32M328 111h64M120 112h64M240 112h32M328 112h64M120 113h64M240 113h32M328 113h64M120 114h64M240 114h32M328 114h64M120 115h64M240 115h32M328 115h64M120 116h64M240 116h32M328 116h64M120 117h64M240 117h32M328 117h64M120 118h64M240 118h32M328 118h64M120 119h64M240 119h32M328 119h64M120 120h272M120 121h272M120 122h272M120 123h272M120 124h272M120 125h272M120 126h272M120 127h272M120 128h272M120 129h272M120 130h272M120 131h272M120 132h272M120 133h272M120 134h272M120 135h272M176 144h224M176 145h224M176 146h224M176 147h224M176 148h224M176 149h224M176 150h224M176 151h224M392 152h24M392 153h24M392 154h24M392 155h24M392 156h24M392 157h24M392 158h24M392 159h24M296 160h120M296 161h120M296 162h120M296 163h120M296 164h120M296 165h120M296 166h120M296 167h120M392 168h8M392 169h8M392 170h8M392 171h8M392 172h8M392 173h8M392 174h8M392 175h8M168 184h8M272 184h8M296 184h16M336 184h16M360 184h8M168 185h8M272 185h8M296 185h16M336 185h16M360 185h8M168 186h8M272 186h8M296 186h16M336 186h16M360 186h8M168 187h8M272 187h8M296 187h16M336 187h16M360 187h8M168 188h8M272 188h8M296 188h16M336 188h16M360 188h8M168 189h8M272 189h8M296 189h16M336 189h16M360 189h8M168 190h8M272 190h8M296 190h16M336 190h16M360 190h8M168 191h8M272 191h8M296 191h16M336 191h16M360 191h8M168 192h8M272 192h8M296 192h16M336 192h16M360 192h8M168 193h8M272 193h8M296 193h16M336 193h16M360 193h8M168 194h8M272 194h8M296 194h16M336 194h16M360 194h8M168 195h8M272 195h8M296 195h16M336 195h16M360 195h8M168 196h8M272 196h8M296 196h16M336 196h16M360 196h8M168 197h8M272 197h8M296 197h16M336 197h16M360 197h8M168 198h8M272 198h8M296 198h16M336 198h16M360 198h8M168 199h8M272 199h8M296 199h16M336 199h16M360 199h8M168 200h8M272 200h8M296 200h16M336 200h16M360 200h8M168 201h8M272 201h8M296 201h16M336 201h16M360 201h8M168 202h8M272 202h8M296 202h16M336 202h16M360 202h8M168 203h8M272 203h8M296 203h16M336 203h16M360 203h8M168 204h8M272 204h8M296 204h16M336 204h16M360 204h8M168 205h8M272 205h8M296 205h16M336 205h16M360 205h8M168 206h8M272 206h8M296 206h16M336 206h16M360 206h8M168 207h8M272 207h8M296 207h16M336 207h16M360 207h8M168 208h8M272 208h8M296 208h16M336 208h16M360 208h8M168 209h8M272 209h8M296 209h16M336 209h16M360 209h8M168 210h8M272 210h8M296 210h16M336 210h16M360 210h8M168 211h8M272 211h8M296 211h16M336 211h16M360 211h8M168 212h8M272 212h8M296 212h16M336 212h16M360 212h8M168 213h8M272 213h8M296 213h16M336 213h16M360 213h8M168 214h8M272 214h8M296 214h16M336 214h16M360 214h8M168 215h8M272 215h8M296 215h16M336 215h16M360 215h8M168 216h8M272 216h8M296 216h16M336 216h16M360 216h8M168 217h8M272 217h8M296 217h16M336 217h16M360 217h8M168 218h8M272 218h8M296 218h16M336 218h16M360 218h8M168 219h8M272 219h8M296 219h16M336 219h16M360 219h8M168 220h8M272 220h8M296 220h16M336 220h16M360 220h8M168 221h8M272 221h8M296 221h16M336 221h16M360 221h8M168 222h8M272 222h8M296 222h16M336 222h16M360 222h8M168 223h8M272 223h8M296 223h16M336 223h16M360 223h8M168 224h8M272 224h8M296 224h16M336 224h16M168 225h8M272 225h8M296 225h16M336 225h16M168 226h8M272 226h8M296 226h16M336 226h16M168 227h8M272 227h8M296 227h16M336 227h16M168 228h8M272 228h8M296 228h16M336 228h16M168 229h8M272 229h8M296 229h16M336 229h16M168 230h8M272 230h8M296 230h16M336 230h16M168 231h8M272 231h8M296 231h16M336 231h16M168 232h8M272 232h8M296 232h16M336 232h24M168 233h8M272 233h8M296 233h16M336 233h24M168 234h8M272 234h8M296 234h16M336 234h24M168 235h8M272 235h8M296 235h16M336 235h24M168 236h8M272 236h8M296 236h16M336 236h24M168 237h8M272 237h8M296 237h16M336 237h24M168 238h8M272 238h8M296 238h16M336 238h24M168 239h8M272 239h8M296 239h16M336 239h24M168 240h8M272 240h8M296 240h16M344 240h16M168 241h8M272 241h8M296 241h16M344 241h16M168 242h8M272 242h8M296 242h16M344 242h16M168 243h8M272 243h8M296 243h16M344 243h16M168 244h8M272 244h8M296 244h16M344 244h16M168 245h8M272 245h8M296 245h16M344 245h16M168 246h8M272 246h8M296 246h16M344 246h16M168 247h8M272 247h8M296 247h16M344 247h16M168 248h8M272 248h8M296 248h16M344 248h16M168 249h8M272 249h8M296 249h16M344 249h16M168 250h8M272 250h8M296 250h16M344 250h16M168 251h8M272 251h8M296 251h16M344 251h16M168 252h8M272 252h8M296 252h16M344 252h16M168 253h8M272 253h8M296 253h16M344 253h16M168 254h8M272 254h8M296 254h16M344 254h16M168 255h8M272 255h8M296 255h16M344 255h16M168 256h8M272 256h8M296 256h16M344 256h16M168 257h8M272 257h8M296 257h16M344 257h16M168 258h8M272 258h8M296 258h16M344 258h16M168 259h8M272 259h8M296 259h16M344 259h16M168 260h8M272 260h8M296 260h16M344 260h16M168 261h8M272 261h8M296 261h16M344 261h16M168 262h8M272 262h8M296 262h16M344 262h16M168 263h8M272 263h8M296 263h16M344 263h16M168 264h8M272 264h8M296 264h16M344 264h16M168 265h8M272 265h8M296 265h16M344 265h16M168 266h8M272 266h8M296 266h16M344 266h16M168 267h8M272 267h8M296 267h16M344 267h16M168 268h8M272 268h8M296 268h16M344 268h16M168 269h8M272 269h8M296 269h16M344 269h16M168 270h8M272 270h8M296 270h16M344 270h16M168 271h8M272 271h8M296 271h16M344 271h16M168 272h8M272 272h8M296 272h16M344 272h16M168 273h8M272 273h8M296 273h16M344 273h16M168 274h8M272 274h8M296 274h16M344 274h16M168 275h8M272 275h8M296 275h16M344 275h16M168 276h8M272 276h8M296 276h16M344 276h16M168 277h8M272 277h8M296 277h16M344 277h16M168 278h8M272 278h8M296 278h16M344 278h16M168 279h8M272 279h8M296 279h16M344 279h16M168 280h8M272 280h8M296 280h16M344 280h8M168 281h8M272 281h8M296 281h16M344 281h8M168 282h8M272 282h8M296 282h16M344 282h8M168 283h8M272 283h8M296 283h16M344 283h8M168 284h8M272 284h8M296 284h16M344 284h8M168 285h8M272 285h8M296 285h16M344 285h8M168 286h8M272 286h8M296 286h16M344 286h8M168 287h8M272 287h8M296 287h16M344 287h8M168 288h16M272 288h8M296 288h16M344 288h8M168 289h16M272 289h8M296 289h16M344 289h8M168 290h16M272 290h8M296 290h16M344 290h8M168 291h16M272 291h8M296 291h16M344 291h8M168 292h16M272 292h8M296 292h16M344 292h8M168 293h16M272 293h8M296 293h16M344 293h8M168 294h16M272 294h8M296 294h16M344 294h8M168 295h16M272 295h8M296 295h16M344 295h8M168 296h16M272 296h8M296 296h16M344 296h8M168 297h16M272 297h8M296 297h16M344 297h8M168 298h16M272 298h8M296 298h16M344 298h8M168 299h16M272 299h8M296 299h16M344 299h8M168 300h16M272 300h8M296 300h16M344 300h8M168 301h16M272 301h8M296 301h16M344 301h8M168 302h16M272 302h8M296 302h16M344 302h8M168 303h16M272 303h8M296 303h16M344 303h8M168 304h16M272 304h8M296 304h16M344 304h8M168 305h16M272 305h8M296 305h16M344 305h8M168 306h16M272 306h8M296 306h16M344 306h8M168 307h16M272 307h8M296 307h16M344 307h8M168 308h16M272 308h8M296 308h16M344 308h8M168 309h16M272 309h8M296 309h16M344 309h8M168 310h16M272 310h8M296 310h16M344 310h8M168 311h16M272 311h8M296 311h16M344 311h8M168 312h16M272 312h8M296 312h16M336 312h16M168 313h16M272 313h8M296 313h16M336 313h16M168 314h16M272 314h8M296 314h16M336 314h16M168 315h16M272 315h8M296 315h16M336 315h16M168 316h16M272 316h8M296 316h16M336 316h16M168 317h16M272 317h8M296 317h16M336 317h16M168 318h16M272 318h8M296 318h16M336 318h16M168 319h16M272 319h8M296 319h16M336 319h16M168 320h16M272 320h8M296 320h16M336 320h16M168 321h16M272 321h8M296 321h16M336 321h16M168 322h16M272 322h8M296 322h16M336 322h16M168 323h16M272 323h8M296 323h16M336 323h16M168 324h16M272 324h8M296 324h16M336 324h16M168 325h16M272 325h8M296 325h16M336 325h16M168 326h16M272 326h8M296 326h16M336 326h16M168 327h16M272 327h8M296 327h16M336 327h16M168 328h16M296 328h16M336 328h16M168 329h16M296 329h16M336 329h16M168 330h16M296 330h16M336 330h16M168 331h16M296 331h16M336 331h16M168 332h16M296 332h16M336 332h16M168 333h16M296 333h16M336 333h16M168 334h16M296 334h16M336 334h16M168 335h16M296 335h16M336 335h16M152 336h8M168 336h16M296 336h8M336 336h16M152 337h8M168 337h16M296 337h8M336 337h16M152 338h8M168 338h16M296 338h8M336 338h16M152 339h8M168 339h16M296 339h8M336 339h16M152 340h8M168 340h16M296 340h8M336 340h16M152 341h8M168 341h16M296 341h8M336 341h16M152 342h8M168 342h16M296 342h8M336 342h16M152 343h8M168 343h16M296 343h8M336 343h16M152 344h8M168 344h16M296 344h8M336 344h16M152 345h8M168 345h16M296 345h8M336 345h16M152 346h8M168 346h16M296 346h8M336 346h16M152 347h8M168 347h16M296 347h8M336 347h16M152 348h8M168 348h16M296 348h8M336 348h16M152 349h8M168 349h16M296 349h8M336 349h16M152 350h8M168 350h16M296 350h8M336 350h16M152 351h8M168 351h16M296 351h8M336 351h16M152 352h8M168 352h16M296 352h8M336 352h16M152 353h8M168 353h16M296 353h8M336 353h16M152 354h8M168 354h16M296 354h8M336 354h16M152 355h8M168 355h16M296 355h8M336 355h16M152 356h8M168 356h16M296 356h8M336 356h16M152 357h8M168 357h16M296 357h8M336 357h16M152 358h8M168 358h16M296 358h8M336 358h16M152 359h8M168 359h16M296 359h8M336 359h16M152 360h8M296 360h8M344 360h8M152 361h8M296 361h8M344 361h8M152 362h8M296 362h8M344 362h8M152 363h8M296 363h8M344 363h8M152 364h8M296 364h8M344 364h8M152 365h8M296 365h8M344 365h8M152 366h8M296 366h8M344 366h8M152 367h8M296 367h8M344 367h8M152 368h8M280 368h24M344 368h8M152 369h8M280 369h24M344 369h8M152 370h8M280 370h24M344 370h8M152 371h8M280 371h24M344 371h8M152 372h8M280 372h24M344 372h8M152 373h8M280 373h24M344 373h8M152 374h8M280 374h24M344 374h8M152 375h8M280 375h24M344 375h8M152 376h8M280 376h24M344 376h8M152 377h8M280 377h24M344 377h8M152 378h8M280 378h24M344 378h8M152 379h8M280 379h24M344 379h8M152 380h8M280 380h24M344 380h8M152 381h8M280 381h24M344 381h8M152 382h8M280 382h24M344 382h8M152 383h8M280 383h24M344 383h8M152 384h8M280 384h24M344 384h8M152 385h8M280 385h24M344 385h8M152 386h8M280 386h24M344 386h8M152 387h8M280 387h24M344 387h8M152 388h8M280 388h24M344 388h8M152 389h8M280 389h24M344 389h8M152 390h8M280 390h24M344 390h8M152 391h8M280 391h24M344 391h8M152 392h8M280 392h16M344 392h8M152 393h8M280 393h16M344 393h8M152 394h8M280 394h16M344 394h8M152 395h8M280 395h16M344 395h8M152 396h8M280 396h16M344 396h8M152 397h8M280 397h16M344 397h8M152 398h8M280 398h16M344 398h8M152 399h8M280 399h16M344 399h8M152 400h8M280 400h16M344 400h16M152 401h8M280 401h16M344 401h16M152 402h8M280 402h16M344 402h16M152 403h8M280 403h16M344 403h16M152 404h8M280 404h16M344 404h16M152 405h8M280 405h16M344 405h16M152 406h8M280 406h16M344 406h16M152 407h8M280 407h16M344 407h16M152 408h16M280 408h16M344 408h16M152 409h16M280 409h16M344 409h16M152 410h16M280 410h16M344 410h16M152 411h16M280 411h16M344 411h16M152 412h16M280 412h16M344 412h16M152 413h16M280 413h16M344 413h16M152 414h16M280 414h16M344 414h16M152 415h16M280 415h16M344 415h16M160 416h8M280 416h24M344 416h16M160 417h8M280 417h24M344 417h16M160 418h8M280 418h24M344 418h16M160 419h8M280 419h24M344 419h16M160 420h8M280 420h24M344 420h16M160 421h8M280 421h24M344 421h16M160 422h8M280 422h24M344 422h16M160 423h8M280 423h24M344 423h16M160 424h8M280 424h24M344 424h16M160 425h8M280 425h24M344 425h16M160 426h8M280 426h24M344 426h16M160 427h8M280 427h24M344 427h16M160 428h8M280 428h24M344 428h16M160 429h8M280 429h24M344 429h16M160 430h8M280 430h24M344 430h16M160 431h8M280 431h24M344 431h16M160 432h8M280 432h24M344 432h16M160 433h8M280 433h24M344 433h16M160 434h8M280 434h24M344 434h16M160 435h8M280 435h24M344 435h16M160 436h8M280 436h24M344 436h16M160 437h8M280 437h24M344 437h16M160 438h8M280 438h24M344 438h16M160 439h8M280 439h24M344 439h16M280 440h24M344 440h16M280 441h24M344 441h16M280 442h24M344 442h16M280 443h24M344 443h16M280 444h24M344 444h16M280 445h24M344 445h16M280 446h24M344 446h16M280 447h24M344 447h16M152 448h80M280 448h16M344 448h16M152 449h80M280 449h16M344 449h16M152 450h80M280 450h16M344 450h16M152 451h80M280 451h16M344 451h16M152 452h80M280 452h16M344 452h16M152 453h80M280 453h16M344 453h16M152 454h80M280 454h16M344 454h16M152 455h80M280 455h16M344 455h16M176 456h56M280 456h16M344 456h16M176 457h56M280 457h16M344 457h16M176 458h56M280 458h16M344 458h16M176 459h56M280 459h16M344 459h16M176 460h56M280 460h16M344 460h16M176 461h56M280 461h16M344 461h16M176 462h56M280 462h16M344 462h16M176 463h56M280 463h16M344 463h16M280 464h16M344 464h16M280 465h16M344 465h16M280 466h16M344 466h16M280 467h16M344 467h16M280 468h16M344 468h16M280 469h16M344 469h16M280 470h16M344 470h16M280 471h16M344 471h16M280 472h16M280 473h16M280 474h16M280 475h16M280 476h16M280 477h16M280 478h16M280 479h16M184 480h80M280 480h16M184 481h80M280 481h16M184 482h80M280 482h16M184 483h80M280 483h16M184 484h80M280 484h16M184 485h80M280 485h16M184 486h80M280 486h16M184 487h80M280 487h16" />
<path stroke="#797777" d="M184 112h56M272 112h56M184 113h56M272 113h56M184 114h56M272 114h56M184 115h56M272 115h56M184 116h56M272 116h56M184 117h56M272 117h56M184 118h56M272 118h56M184 119h56M272 119h56M96 160h48M96 161h48M96 162h48M96 163h48M96 164h48M96 165h48M96 166h48M96 167h48M112 168h112M112 169h112M112 170h112M112 171h112M112 172h112M112 173h112M112 174h112M112 175h112" />
<path stroke="#a7a5a5" d="M96 144h80M400 144h16M96 145h80M400 145h16M96 146h80M400 146h16M96 147h80M400 147h16M96 148h80M400 148h16M96 149h80M400 149h16M96 150h80M400 150h16M96 151h80M400 151h16M96 152h296M96 153h296M96 154h296M96 155h296M96 156h296M96 157h296M96 158h296M96 159h296M144 160h152M144 161h152M144 162h152M144 163h152M144 164h152M144 165h152M144 166h152M144 167h152M224 168h168M224 169h168M224 170h168M224 171h168M224 172h168M224 173h168M224 174h168M224 175h168M128 176h8M376 176h8M128 177h8M376 177h8M128 178h8M376 178h8M128 179h8M376 179h8M128 180h8M376 180h8M128 181h8M376 181h8M128 182h8M376 182h8M128 183h8M376 183h8" />
<path stroke="#c3f7f4" d="M144 184h24M176 184h96M288 184h8M312 184h16M144 185h24M176 185h96M288 185h8M312 185h16M144 186h24M176 186h96M288 186h8M312 186h16M144 187h24M176 187h96M288 187h8M312 187h16M144 188h24M176 188h96M288 188h8M312 188h16M144 189h24M176 189h96M288 189h8M312 189h16M144 190h24M176 190h96M288 190h8M312 190h16M144 191h24M176 191h96M288 191h8M312 191h16M144 192h24M176 192h96M288 192h8M312 192h16M144 193h24M176 193h96M288 193h8M312 193h16M144 194h24M176 194h96M288 194h8M312 194h16M144 195h24M176 195h96M288 195h8M312 195h16M144 196h24M176 196h96M288 196h8M312 196h16M144 197h24M176 197h96M288 197h8M312 197h16M144 198h24M176 198h96M288 198h8M312 198h16M144 199h24M176 199h96M288 199h8M312 199h16M144 200h24M176 200h96M288 200h8M312 200h16M144 201h24M176 201h96M288 201h8M312 201h16M144 202h24M176 202h96M288 202h8M312 202h16M144 203h24M176 203h96M288 203h8M312 203h16M144 204h24M176 204h96M288 204h8M312 204h16M144 205h24M176 205h96M288 205h8M312 205h16M144 206h24M176 206h96M288 206h8M312 206h16M144 207h24M176 207h96M288 207h8M312 207h16M144 208h24M176 208h96M288 208h8M312 208h16M144 209h24M176 209h96M288 209h8M312 209h16M144 210h24M176 210h96M288 210h8M312 210h16M144 211h24M176 211h96M288 211h8M312 211h16M144 212h24M176 212h96M288 212h8M312 212h16M144 213h24M176 213h96M288 213h8M312 213h16M144 214h24M176 214h96M288 214h8M312 214h16M144 215h24M176 215h96M288 215h8M312 215h16M144 216h24M176 216h96M288 216h8M312 216h16M144 217h24M176 217h96M288 217h8M312 217h16M144 218h24M176 218h96M288 218h8M312 218h16M144 219h24M176 219h96M288 219h8M312 219h16M144 220h24M176 220h96M288 220h8M312 220h16M144 221h24M176 221h96M288 221h8M312 221h16M144 222h24M176 222h96M288 222h8M312 222h16M144 223h24M176 223h96M288 223h8M312 223h16M144 224h24M176 224h96M288 224h8M312 224h8M144 225h24M176 225h96M288 225h8M312 225h8M144 226h24M176 226h96M288 226h8M312 226h8M144 227h24M176 227h96M288 227h8M312 227h8M144 228h24M176 228h96M288 228h8M312 228h8M144 229h24M176 229h96M288 229h8M312 229h8M144 230h24M176 230h96M288 230h8M312 230h8M144 231h24M176 231h96M288 231h8M312 231h8M144 232h24M176 232h96M288 232h8M312 232h8M144 233h24M176 233h96M288 233h8M312 233h8M144 234h24M176 234h96M288 234h8M312 234h8M144 235h24M176 235h96M288 235h8M312 235h8M144 236h24M176 236h96M288 236h8M312 236h8M144 237h24M176 237h96M288 237h8M312 237h8M144 238h24M176 238h96M288 238h8M312 238h8M144 239h24M176 239h96M288 239h8M312 239h8M144 240h24M176 240h96M288 240h8M312 240h8M336 240h8M144 241h24M176 241h96M288 241h8M312 241h8M336 241h8M144 242h24M176 242h96M288 242h8M312 242h8M336 242h8M144 243h24M176 243h96M288 243h8M312 243h8M336 243h8M144 244h24M176 244h96M288 244h8M312 244h8M336 244h8M144 245h24M176 245h96M288 245h8M312 245h8M336 245h8M144 246h24M176 246h96M288 246h8M312 246h8M336 246h8M144 247h24M176 247h96M288 247h8M312 247h8M336 247h8M144 248h24M176 248h96M288 248h8M312 248h8M336 248h8M144 249h24M176 249h96M288 249h8M312 249h8M336 249h8M144 250h24M176 250h96M288 250h8M312 250h8M336 250h8M144 251h24M176 251h96M288 251h8M312 251h8M336 251h8M144 252h24M176 252h96M288 252h8M312 252h8M336 252h8M144 253h24M176 253h96M288 253h8M312 253h8M336 253h8M144 254h24M176 254h96M288 254h8M312 254h8M336 254h8M144 255h24M176 255h96M288 255h8M312 255h8M336 255h8M144 256h24M176 256h96M288 256h8M312 256h8M336 256h8M144 257h24M176 257h96M288 257h8M312 257h8M336 257h8M144 258h24M176 258h96M288 258h8M312 258h8M336 258h8M144 259h24M176 259h96M288 259h8M312 259h8M336 259h8M144 260h24M176 260h96M288 260h8M312 260h8M336 260h8M144 261h24M176 261h96M288 261h8M312 261h8M336 261h8M144 262h24M176 262h96M288 262h8M312 262h8M336 262h8M144 263h24M176 263h96M288 263h8M312 263h8M336 263h8M144 264h24M176 264h96M288 264h8M312 264h8M336 264h8M144 265h24M176 265h96M288 265h8M312 265h8M336 265h8M144 266h24M176 266h96M288 266h8M312 266h8M336 266h8M144 267h24M176 267h96M288 267h8M312 267h8M336 267h8M144 268h24M176 268h96M288 268h8M312 268h8M336 268h8M144 269h24M176 269h96M288 269h8M312 269h8M336 269h8M144 270h24M176 270h96M288 270h8M312 270h8M336 270h8M144 271h24M176 271h96M288 271h8M312 271h8M336 271h8M144 272h24M176 272h96M288 272h8M312 272h8M336 272h8M144 273h24M176 273h96M288 273h8M312 273h8M336 273h8M144 274h24M176 274h96M288 274h8M312 274h8M336 274h8M144 275h24M176 275h96M288 275h8M312 275h8M336 275h8M144 276h24M176 276h96M288 276h8M312 276h8M336 276h8M144 277h24M176 277h96M288 277h8M312 277h8M336 277h8M144 278h24M176 278h96M288 278h8M312 278h8M336 278h8M144 279h24M176 279h96M288 279h8M312 279h8M336 279h8M144 280h24M176 280h96M288 280h8M312 280h8M336 280h8M352 280h8M144 281h24M176 281h96M288 281h8M312 281h8M336 281h8M352 281h8M144 282h24M176 282h96M288 282h8M312 282h8M336 282h8M352 282h8M144 283h24M176 283h96M288 283h8M312 283h8M336 283h8M352 283h8M144 284h24M176 284h96M288 284h8M312 284h8M336 284h8M352 284h8M144 285h24M176 285h96M288 285h8M312 285h8M336 285h8M352 285h8M144 286h24M176 286h96M288 286h8M312 286h8M336 286h8M352 286h8M144 287h24M176 287h96M288 287h8M312 287h8M336 287h8M352 287h8M144 288h24M184 288h88M288 288h8M312 288h8M336 288h8M352 288h8M144 289h24M184 289h88M288 289h8M312 289h8M336 289h8M352 289h8M144 290h24M184 290h88M288 290h8M312 290h8M336 290h8M352 290h8M144 291h24M184 291h88M288 291h8M312 291h8M336 291h8M352 291h8M144 292h24M184 292h88M288 292h8M312 292h8M336 292h8M352 292h8M144 293h24M184 293h88M288 293h8M312 293h8M336 293h8M352 293h8M144 294h24M184 294h88M288 294h8M312 294h8M336 294h8M352 294h8M144 295h24M184 295h88M288 295h8M312 295h8M336 295h8M352 295h8M144 296h24M184 296h88M288 296h8M312 296h8M336 296h8M352 296h8M144 297h24M184 297h88M288 297h8M312 297h8M336 297h8M352 297h8M144 298h24M184 298h88M288 298h8M312 298h8M336 298h8M352 298h8M144 299h24M184 299h88M288 299h8M312 299h8M336 299h8M352 299h8M144 300h24M184 300h88M288 300h8M312 300h8M336 300h8M352 300h8M144 301h24M184 301h88M288 301h8M312 301h8M336 301h8M352 301h8M144 302h24M184 302h88M288 302h8M312 302h8M336 302h8M352 302h8M144 303h24M184 303h88M288 303h8M312 303h8M336 303h8M352 303h8M144 304h24M184 304h88M288 304h8M312 304h8M336 304h8M144 305h24M184 305h88M288 305h8M312 305h8M336 305h8M144 306h24M184 306h88M288 306h8M312 306h8M336 306h8M144 307h24M184 307h88M288 307h8M312 307h8M336 307h8M144 308h24M184 308h88M288 308h8M312 308h8M336 308h8M144 309h24M184 309h88M288 309h8M312 309h8M336 309h8M144 310h24M184 310h88M288 310h8M312 310h8M336 310h8M144 311h24M184 311h88M288 311h8M312 311h8M336 311h8M152 312h16M184 312h88M288 312h8M312 312h8M152 313h16M184 313h88M288 313h8M312 313h8M152 314h16M184 314h88M288 314h8M312 314h8M152 315h16M184 315h88M288 315h8M312 315h8M152 316h16M184 316h88M288 316h8M312 316h8M152 317h16M184 317h88M288 317h8M312 317h8M152 318h16M184 318h88M288 318h8M312 318h8M152 319h16M184 319h88M288 319h8M312 319h8M152 320h16M184 320h88M288 320h8M312 320h8M152 321h16M184 321h88M288 321h8M312 321h8M152 322h16M184 322h88M288 322h8M312 322h8M152 323h16M184 323h88M288 323h8M312 323h8M152 324h16M184 324h88M288 324h8M312 324h8M152 325h16M184 325h88M288 325h8M312 325h8M152 326h16M184 326h88M288 326h8M312 326h8M152 327h16M184 327h88M288 327h8M312 327h8M152 328h16M184 328h96M288 328h8M312 328h8M152 329h16M184 329h96M288 329h8M312 329h8M152 330h16M184 330h96M288 330h8M312 330h8M152 331h16M184 331h96M288 331h8M312 331h8M152 332h16M184 332h96M288 332h8M312 332h8M152 333h16M184 333h96M288 333h8M312 333h8M152 334h16M184 334h96M288 334h8M312 334h8M152 335h16M184 335h96M288 335h8M312 335h8M160 336h8M184 336h96M288 336h8M312 336h8M160 337h8M184 337h96M288 337h8M312 337h8M160 338h8M184 338h96M288 338h8M312 338h8M160 339h8M184 339h96M288 339h8M312 339h8M160 340h8M184 340h96M288 340h8M312 340h8M160 341h8M184 341h96M288 341h8M312 341h8M160 342h8M184 342h96M288 342h8M312 342h8M160 343h8M184 343h96M288 343h8M312 343h8M160 344h8M184 344h96M288 344h8M312 344h8M160 345h8M184 345h96M288 345h8M312 345h8M160 346h8M184 346h96M288 346h8M312 346h8M160 347h8M184 347h96M288 347h8M312 347h8M160 348h8M184 348h96M288 348h8M312 348h8M160 349h8M184 349h96M288 349h8M312 349h8M160 350h8M184 350h96M288 350h8M312 350h8M160 351h8M184 351h96M288 351h8M312 351h8M160 352h8M184 352h96M288 352h8M312 352h8M160 353h8M184 353h96M288 353h8M312 353h8M160 354h8M184 354h96M288 354h8M312 354h8M160 355h8M184 355h96M288 355h8M312 355h8M160 356h8M184 356h96M288 356h8M312 356h8M160 357h8M184 357h96M288 357h8M312 357h8M160 358h8M184 358h96M288 358h8M312 358h8M160 359h8M184 359h96M288 359h8M312 359h8M160 360h136M312 360h8M336 360h8M160 361h136M312 361h8M336 361h8M160 362h136M312 362h8M336 362h8M160 363h136M312 363h8M336 363h8M160 364h136M312 364h8M336 364h8M160 365h136M312 365h8M336 365h8M160 366h136M312 366h8M336 366h8M160 367h136M312 367h8M336 367h8M160 368h120M312 368h8M336 368h8M160 369h120M312 369h8M336 369h8M160 370h120M312 370h8M336 370h8M160 371h120M312 371h8M336 371h8M160 372h120M312 372h8M336 372h8M160 373h120M312 373h8M336 373h8M160 374h120M312 374h8M336 374h8M160 375h120M312 375h8M336 375h8M160 376h120M312 376h8M160 377h120M312 377h8M160 378h120M312 378h8M160 379h120M312 379h8M160 380h120M312 380h8M160 381h120M312 381h8M160 382h120M312 382h8M160 383h120M312 383h8M160 384h120M312 384h16M160 385h120M312 385h16M160 386h120M312 386h16M160 387h120M312 387h16M160 388h120M312 388h16M160 389h120M312 389h16M160 390h120M312 390h16M160 391h120M312 391h16M160 392h120M296 392h8M312 392h16M352 392h8M160 393h120M296 393h8M312 393h16M352 393h8M160 394h120M296 394h8M312 394h16M352 394h8M160 395h120M296 395h8M312 395h16M352 395h8M160 396h120M296 396h8M312 396h16M352 396h8M160 397h120M296 397h8M312 397h16M352 397h8M160 398h120M296 398h8M312 398h16M352 398h8M160 399h120M296 399h8M312 399h16M352 399h8M160 400h120M296 400h8M312 400h16M160 401h120M296 401h8M312 401h16M160 402h120M296 402h8M312 402h16M160 403h120M296 403h8M312 403h16M160 404h120M296 404h8M312 404h16M160 405h120M296 405h8M312 405h16M160 406h120M296 406h8M312 406h16M160 407h120M296 407h8M312 407h16M168 408h112M296 408h8M312 408h16M168 409h112M296 409h8M312 409h16M168 410h112M296 410h8M312 410h16M168 411h112M296 411h8M312 411h16M168 412h112M296 412h8M312 412h16M168 413h112M296 413h8M312 413h16M168 414h112M296 414h8M312 414h16M168 415h112M296 415h8M312 415h16M152 416h8M168 416h112M320 416h8M152 417h8M168 417h112M320 417h8M152 418h8M168 418h112M320 418h8M152 419h8M168 419h112M320 419h8M152 420h8M168 420h112M320 420h8M152 421h8M168 421h112M320 421h8M152 422h8M168 422h112M320 422h8M152 423h8M168 423h112M320 423h8M152 424h8M168 424h112M320 424h8M152 425h8M168 425h112M320 425h8M152 426h8M168 426h112M320 426h8M152 427h8M168 427h112M320 427h8M152 428h8M168 428h112M320 428h8M152 429h8M168 429h112M320 429h8M152 430h8M168 430h112M320 430h8M152 431h8M168 431h112M320 431h8M152 432h8M168 432h112M320 432h16M152 433h8M168 433h112M320 433h16M152 434h8M168 434h112M320 434h16M152 435h8M168 435h112M320 435h16M152 436h8M168 436h112M320 436h16M152 437h8M168 437h112M320 437h16M152 438h8M168 438h112M320 438h16M152 439h8M168 439h112M320 439h16M152 440h128M320 440h16M152 441h128M320 441h16M152 442h128M320 442h16M152 443h128M320 443h16M152 444h128M320 444h16M152 445h128M320 445h16M152 446h128M320 446h16M152 447h128M320 447h16M232 448h48M296 448h8M320 448h16M232 449h48M296 449h8M320 449h16M232 450h48M296 450h8M320 450h16M232 451h48M296 451h8M320 451h16M232 452h48M296 452h8M320 452h16M232 453h48M296 453h8M320 453h16M232 454h48M296 454h8M320 454h16M232 455h48M296 455h8M320 455h16M152 456h24M232 456h48M296 456h8M320 456h8M152 457h24M232 457h48M296 457h8M320 457h8M152 458h24M232 458h48M296 458h8M320 458h8M152 459h24M232 459h48M296 459h8M320 459h8M152 460h24M232 460h48M296 460h8M320 460h8M152 461h24M232 461h48M296 461h8M320 461h8M152 462h24M232 462h48M296 462h8M320 462h8M152 463h24M232 463h48M296 463h8M320 463h8M152 464h128M296 464h8M320 464h24M152 465h128M296 465h8M320 465h24M152 466h128M296 466h8M320 466h24M152 467h128M296 467h8M320 467h24M152 468h128M296 468h8M320 468h24M152 469h128M296 469h8M320 469h24M152 470h128M296 470h8M320 470h24M152 471h128M296 471h8M320 471h24M184 472h96M296 472h8M320 472h8M184 473h96M296 473h8M320 473h8M184 474h96M296 474h8M320 474h8M184 475h96M296 475h8M320 475h8M184 476h96M296 476h8M320 476h8M184 477h96M296 477h8M320 477h8M184 478h96M296 478h8M320 478h8M184 479h96M296 479h8M320 479h8M264 480h16M296 480h8M320 480h8M264 481h16M296 481h8M320 481h8M264 482h16M296 482h8M320 482h8M264 483h16M296 483h8M320 483h8M264 484h16M296 484h8M320 484h8M264 485h16M296 485h8M320 485h8M264 486h16M296 486h8M320 486h8M264 487h16M296 487h8M320 487h8" />
<path stroke="#4d9999" d="M280 184h8M328 184h8M352 184h8M280 185h8M328 185h8M352 185h8M280 186h8M328 186h8M352 186h8M280 187h8M328 187h8M352 187h8M280 188h8M328 188h8M352 188h8M280 189h8M328 189h8M352 189h8M280 190h8M328 190h8M352 190h8M280 191h8M328 191h8M352 191h8M280 192h8M328 192h8M352 192h8M280 193h8M328 193h8M352 193h8M280 194h8M328 194h8M352 194h8M280 195h8M328 195h8M352 195h8M280 196h8M328 196h8M352 196h8M280 197h8M328 197h8M352 197h8M280 198h8M328 198h8M352 198h8M280 199h8M328 199h8M352 199h8M280 200h8M328 200h8M352 200h8M280 201h8M328 201h8M352 201h8M280 202h8M328 202h8M352 202h8M280 203h8M328 203h8M352 203h8M280 204h8M328 204h8M352 204h8M280 205h8M328 205h8M352 205h8M280 206h8M328 206h8M352 206h8M280 207h8M328 207h8M352 207h8M280 208h8M328 208h8M352 208h8M280 209h8M328 209h8M352 209h8M280 210h8M328 210h8M352 210h8M280 211h8M328 211h8M352 211h8M280 212h8M328 212h8M352 212h8M280 213h8M328 213h8M352 213h8M280 214h8M328 214h8M352 214h8M280 215h8M328 215h8M352 215h8M280 216h8M328 216h8M352 216h8M280 217h8M328 217h8M352 217h8M280 218h8M328 218h8M352 218h8M280 219h8M328 219h8M352 219h8M280 220h8M328 220h8M352 220h8M280 221h8M328 221h8M352 221h8M280 222h8M328 222h8M352 222h8M280 223h8M328 223h8M352 223h8M280 224h8M320 224h16M352 224h16M280 225h8M320 225h16M352 225h16M280 226h8M320 226h16M352 226h16M280 227h8M320 227h16M352 227h16M280 228h8M320 228h16M352 228h16M280 229h8M320 229h16M352 229h16M280 230h8M320 230h16M352 230h16M280 231h8M320 231h16M352 231h16M280 232h8M320 232h16M360 232h8M280 233h8M320 233h16M360 233h8M280 234h8M320 234h16M360 234h8M280 235h8M320 235h16M360 235h8M280 236h8M320 236h16M360 236h8M280 237h8M320 237h16M360 237h8M280 238h8M320 238h16M360 238h8M280 239h8M320 239h16M360 239h8M280 240h8M320 240h16M360 240h8M280 241h8M320 241h16M360 241h8M280 242h8M320 242h16M360 242h8M280 243h8M320 243h16M360 243h8M280 244h8M320 244h16M360 244h8M280 245h8M320 245h16M360 245h8M280 246h8M320 246h16M360 246h8M280 247h8M320 247h16M360 247h8M280 248h8M320 248h16M360 248h8M280 249h8M320 249h16M360 249h8M280 250h8M320 250h16M360 250h8M280 251h8M320 251h16M360 251h8M280 252h8M320 252h16M360 252h8M280 253h8M320 253h16M360 253h8M280 254h8M320 254h16M360 254h8M280 255h8M320 255h16M360 255h8M280 256h8M320 256h16M360 256h8M280 257h8M320 257h16M360 257h8M280 258h8M320 258h16M360 258h8M280 259h8M320 259h16M360 259h8M280 260h8M320 260h16M360 260h8M280 261h8M320 261h16M360 261h8M280 262h8M320 262h16M360 262h8M280 263h8M320 263h16M360 263h8M280 264h8M320 264h16M360 264h8M280 265h8M320 265h16M360 265h8M280 266h8M320 266h16M360 266h8M280 267h8M320 267h16M360 267h8M280 268h8M320 268h16M360 268h8M280 269h8M320 269h16M360 269h8M280 270h8M320 270h16M360 270h8M280 271h8M320 271h16M360 271h8M280 272h8M320 272h16M360 272h8M280 273h8M320 273h16M360 273h8M280 274h8M320 274h16M360 274h8M280 275h8M320 275h16M360 275h8M280 276h8M320 276h16M360 276h8M280 277h8M320 277h16M360 277h8M280 278h8M320 278h16M360 278h8M280 279h8M320 279h16M360 279h8M280 280h8M320 280h16M360 280h8M280 281h8M320 281h16M360 281h8M280 282h8M320 282h16M360 282h8M280 283h8M320 283h16M360 283h8M280 284h8M320 284h16M360 284h8M280 285h8M320 285h16M360 285h8M280 286h8M320 286h16M360 286h8M280 287h8M320 287h16M360 287h8M280 288h8M320 288h16M360 288h8M280 289h8M320 289h16M360 289h8M280 290h8M320 290h16M360 290h8M280 291h8M320 291h16M360 291h8M280 292h8M320 292h16M360 292h8M280 293h8M320 293h16M360 293h8M280 294h8M320 294h16M360 294h8M280 295h8M320 295h16M360 295h8M280 296h8M320 296h16M360 296h8M280 297h8M320 297h16M360 297h8M280 298h8M320 298h16M360 298h8M280 299h8M320 299h16M360 299h8M280 300h8M320 300h16M360 300h8M280 301h8M320 301h16M360 301h8M280 302h8M320 302h16M360 302h8M280 303h8M320 303h16M360 303h8M280 304h8M320 304h16M352 304h16M280 305h8M320 305h16M352 305h16M280 306h8M320 306h16M352 306h16M280 307h8M320 307h16M352 307h16M280 308h8M320 308h16M352 308h16M280 309h8M320 309h16M352 309h16M280 310h8M320 310h16M352 310h16M280 311h8M320 311h16M352 311h16M280 312h8M320 312h16M352 312h8M280 313h8M320 313h16M352 313h8M280 314h8M320 314h16M352 314h8M280 315h8M320 315h16M352 315h8M280 316h8M320 316h16M352 316h8M280 317h8M320 317h16M352 317h8M280 318h8M320 318h16M352 318h8M280 319h8M320 319h16M352 319h8M280 320h8M320 320h16M352 320h8M280 321h8M320 321h16M352 321h8M280 322h8M320 322h16M352 322h8M280 323h8M320 323h16M352 323h8M280 324h8M320 324h16M352 324h8M280 325h8M320 325h16M352 325h8M280 326h8M320 326h16M352 326h8M280 327h8M320 327h16M352 327h8M280 328h8M320 328h16M352 328h8M280 329h8M320 329h16M352 329h8M280 330h8M320 330h16M352 330h8M280 331h8M320 331h16M352 331h8M280 332h8M320 332h16M352 332h8M280 333h8M320 333h16M352 333h8M280 334h8M320 334h16M352 334h8M280 335h8M320 335h16M352 335h8M280 336h8M304 336h8M320 336h16M352 336h8M280 337h8M304 337h8M320 337h16M352 337h8M280 338h8M304 338h8M320 338h16M352 338h8M280 339h8M304 339h8M320 339h16M352 339h8M280 340h8M304 340h8M320 340h16M352 340h8M280 341h8M304 341h8M320 341h16M352 341h8M280 342h8M304 342h8M320 342h16M352 342h8M280 343h8M304 343h8M320 343h16M352 343h8M280 344h8M304 344h8M320 344h16M352 344h8M280 345h8M304 345h8M320 345h16M352 345h8M280 346h8M304 346h8M320 346h16M352 346h8M280 347h8M304 347h8M320 347h16M352 347h8M280 348h8M304 348h8M320 348h16M352 348h8M280 349h8M304 349h8M320 349h16M352 349h8M280 350h8M304 350h8M320 350h16M352 350h8M280 351h8M304 351h8M320 351h16M352 351h8M280 352h8M304 352h8M320 352h16M352 352h8M280 353h8M304 353h8M320 353h16M352 353h8M280 354h8M304 354h8M320 354h16M352 354h8M280 355h8M304 355h8M320 355h16M352 355h8M280 356h8M304 356h8M320 356h16M352 356h8M280 357h8M304 357h8M320 357h16M352 357h8M280 358h8M304 358h8M320 358h16M352 358h8M280 359h8M304 359h8M320 359h16M352 359h8M304 360h8M320 360h16M352 360h8M304 361h8M320 361h16M352 361h8M304 362h8M320 362h16M352 362h8M304 363h8M320 363h16M352 363h8M304 364h8M320 364h16M352 364h8M304 365h8M320 365h16M352 365h8M304 366h8M320 366h16M352 366h8M304 367h8M320 367h16M352 367h8M304 368h8M320 368h16M352 368h8M304 369h8M320 369h16M352 369h8M304 370h8M320 370h16M352 370h8M304 371h8M320 371h16M352 371h8M304 372h8M320 372h16M352 372h8M304 373h8M320 373h16M352 373h8M304 374h8M320 374h16M352 374h8M304 375h8M320 375h16M352 375h8M304 376h8M320 376h24M352 376h8M304 377h8M320 377h24M352 377h8M304 378h8M320 378h24M352 378h8M304 379h8M320 379h24M352 379h8M304 380h8M320 380h24M352 380h8M304 381h8M320 381h24M352 381h8M304 382h8M320 382h24M352 382h8M304 383h8M320 383h24M352 383h8M304 384h8M328 384h16M352 384h8M304 385h8M328 385h16M352 385h8M304 386h8M328 386h16M352 386h8M304 387h8M328 387h16M352 387h8M304 388h8M328 388h16M352 388h8M304 389h8M328 389h16M352 389h8M304 390h8M328 390h16M352 390h8M304 391h8M328 391h16M352 391h8M304 392h8M328 392h16M304 393h8M328 393h16M304 394h8M328 394h16M304 395h8M328 395h16M304 396h8M328 396h16M304 397h8M328 397h16M304 398h8M328 398h16M304 399h8M328 399h16M304 400h8M328 400h16M304 401h8M328 401h16M304 402h8M328 402h16M304 403h8M328 403h16M304 404h8M328 404h16M304 405h8M328 405h16M304 406h8M328 406h16M304 407h8M328 407h16M304 408h8M328 408h16M304 409h8M328 409h16M304 410h8M328 410h16M304 411h8M328 411h16M304 412h8M328 412h16M304 413h8M328 413h16M304 414h8M328 414h16M304 415h8M328 415h16M304 416h16M328 416h16M304 417h16M328 417h16M304 418h16M328 418h16M304 419h16M328 419h16M304 420h16M328 420h16M304 421h16M328 421h16M304 422h16M328 422h16M304 423h16M328 423h16M304 424h16M328 424h16M304 425h16M328 425h16M304 426h16M328 426h16M304 427h16M328 427h16M304 428h16M328 428h16M304 429h16M328 429h16M304 430h16M328 430h16M304 431h16M328 431h16M304 432h16M336 432h8M304 433h16M336 433h8M304 434h16M336 434h8M304 435h16M336 435h8M304 436h16M336 436h8M304 437h16M336 437h8M304 438h16M336 438h8M304 439h16M336 439h8M304 440h16M336 440h8M304 441h16M336 441h8M304 442h16M336 442h8M304 443h16M336 443h8M304 444h16M336 444h8M304 445h16M336 445h8M304 446h16M336 446h8M304 447h16M336 447h8M304 448h16M336 448h8M304 449h16M336 449h8M304 450h16M336 450h8M304 451h16M336 451h8M304 452h16M336 452h8M304 453h16M336 453h8M304 454h16M336 454h8M304 455h16M336 455h8M304 456h16M328 456h16M304 457h16M328 457h16M304 458h16M328 458h16M304 459h16M328 459h16M304 460h16M328 460h16M304 461h16M328 461h16M304 462h16M328 462h16M304 463h16M328 463h16M304 464h16M304 465h16M304 466h16M304 467h16M304 468h16M304 469h16M304 470h16M304 471h16M304 472h16M304 473h16M304 474h16M304 475h16M304 476h16M304 477h16M304 478h16M304 479h16M304 480h16M304 481h16M304 482h16M304 483h16M304 484h16M304 485h16M304 486h16M304 487h16" />
</svg>